<svg width="512" height="512" x="0" y="0" viewBox="0 0 512 512" style="enable-background:new 0 0 512 512" xml:space="preserve" class=""><g><g xmlns="http://www.w3.org/2000/svg"><path d="M274.911,225.774,234.35,266.335a24.006,24.006,0,1,0,6.62,38.636h0a24.037,24.037,0,0,0,4.694-27.32l40.561-40.561a8,8,0,0,0-11.315-11.315Zm-45.254,67.882h0a8,8,0,1,1,0-11.318l0,0,.006,0a8,8,0,0,1,0,11.307Z" fill="#ff5421" data-original="#000000" style="" class=""></path><path d="M438.08,316.83A218.473,218.473,0,0,0,440,288,216.185,216.185,0,0,0,272,77.32V56a8,8,0,0,0-8-8h-9.02a32,32,0,1,0-61.96,0H184a8,8,0,0,0-8,8V77.32A216.044,216.044,0,1,0,336.75,472.27,95.981,95.981,0,1,0,438.08,316.83ZM224,24a15.978,15.978,0,0,1,13.84,24H210.16A15.978,15.978,0,0,1,224,24ZM192,64h64v8H192Zm32,424C113.72,488,24,398.28,24,288S113.72,88,224,88s200,89.72,200,200a202.166,202.166,0,0,1-1.56,25.09A95.493,95.493,0,0,0,408,312c-3.28,0-6.51.17-9.71.49A177.443,177.443,0,0,0,400,288a175.426,175.426,0,0,0-50.78-123.55,7.2,7.2,0,0,0-.77-.9,8.144,8.144,0,0,0-.9-.77,175.691,175.691,0,0,0-247.1,0,8.144,8.144,0,0,0-.9.77,7.2,7.2,0,0,0-.77.9,175.691,175.691,0,0,0,0,247.1,7.2,7.2,0,0,0,.77.9,8.144,8.144,0,0,0,.9.77,175.876,175.876,0,0,0,216.24,24.42A95.356,95.356,0,0,0,327,459.47,199.143,199.143,0,0,1,224,488ZM368,296h15.8a162.22,162.22,0,0,1-2.19,19.69,96.008,96.008,0,0,0-68.72,105.35A158.632,158.632,0,0,1,232,447.8V432a8,8,0,0,0-16,0v15.8a159.4,159.4,0,0,1-99.28-41.2l11.11-11.12a8,8,0,0,0-11.31-11.31L105.4,395.28A159.4,159.4,0,0,1,64.2,296H80a8,8,0,0,0,0-16H64.2a159.4,159.4,0,0,1,41.2-99.28l11.12,11.11a8,8,0,0,0,11.31-11.31L116.72,169.4A159.4,159.4,0,0,1,216,128.2V144a8,8,0,0,0,16,0V128.2a159.4,159.4,0,0,1,99.28,41.2l-11.11,11.12a8,8,0,1,0,11.31,11.31l11.12-11.11A159.4,159.4,0,0,1,383.8,280H368a8,8,0,0,0,0,16Zm40,192a80,80,0,1,1,80-80A80.093,80.093,0,0,1,408,488Z" fill="#ff5421" data-original="#000000" style="" class=""></path><path d="M448.43,369.23l-5.66-5.66a28,28,0,0,0-39.6,0l-39.6,39.6a28,28,0,0,0,0,39.6l5.66,5.66a28,28,0,0,0,39.6,0l39.6-39.6a28,28,0,0,0,0-39.6Zm-50.92,67.88a12.011,12.011,0,0,1-16.97,0l-5.65-5.65a12.011,12.011,0,0,1,0-16.97l14.14-14.15,22.63,22.63Zm39.6-39.6-14.14,14.15-22.63-22.63,14.15-14.14a12.011,12.011,0,0,1,16.97,0l5.65,5.65A12.011,12.011,0,0,1,437.11,397.51Z" fill="#ff5421" data-original="#000000" style="" class=""></path></g></g></svg>